<svg height="512" viewBox="0 0 60 50" width="512" xmlns="http://www.w3.org/2000/svg"><g id="Page-1" fill="none" fill-rule="evenodd"><g id="030---Dislike" fill="rgb(0,0,0)" fill-rule="nonzero"><path id="Shape" d="m36.88 15.29 2.83 2.83-6.17 6.17c-.1918336.1864103-.3000725.4425137-.3000725.71s.1082389.5235897.3000725.71l6.17 6.17-2.83 2.83-6.17-6.17c-.1864103-.1918336-.4425137-.3000725-.71-.3000725s-.5235897.1082389-.71.3000725l-6.17 6.17-2.83-2.83 6.17-6.17c.1918336-.1864103.3000725-.4425137.3000725-.71s-.1082389-.5235897-.3000725-.71l-6.17-6.17 2.83-2.83 6.17 6.17c.1864103.1918336.4425137.3000725.71.3000725s.5235897-.1082389.71-.3000725z"/><path id="Shape" d="m44.51 0c-5.7538548.0514765-11.1404346 2.83571829-14.51 7.5-3.3695654-4.66428171-8.7561452-7.4485235-14.51-7.5-8.59 0-14.51 7.2-14.51 15.73 0 11.37 10.98 19.88 27.74 33.81.7442706.6101372 1.8157294.6101372 2.56 0 16.76-13.93 27.74-22.44 27.74-33.81 0-8.53-5.92-15.73-14.51-15.73zm-34.21 6.64c-2.82884004 2.15019329-4.43923835 5.5387398-4.32 9.09 0 .5522847-.44771525 1-1 1s-1-.4477153-1-1c-.11844449-4.2056766 1.81316673-8.20687127 5.18-10.73.29217068-.22648815.68545836-.27331309 1.0226393-.12175572.3371808.15155738.5632435.47677031.5878153.84562912.0245718.3688588-.1563561.72118373-.4704546.9161266zm5.19-1.64c-.5265034-.00121166-1.052018.04564951-1.57.14-.0627161.01160273-.1262426.01828973-.19.02-.5118932-.00450812-.9377227-.39486816-.986621-.90444041-.0488984-.50957225.2949264-.97378799.796621-1.07555959.6426966-.12258657 1.2957232-.18286594 1.95-.18.5522847 0 1 .44771525 1 1s-.4477153 1-1 1zm25.63 25.46c.3755541.3751365.5865733.8841815.5865733 1.415s-.2110192 1.0398635-.5865733 1.415l-2.83 2.83c-.372912.3762385-.8802674.5885361-1.41.59-.5326928-.0013372-1.0432049-.2134514-1.42-.59l-5.46-5.46-5.46 5.46c-.3751365.3755541-.8841815.5865733-1.415.5865733s-1.0398635-.2110192-1.415-.5865733l-2.83-2.83c-.3755541-.3751365-.5865733-.8841815-.5865733-1.415s.2110192-1.0398635.5865733-1.415l5.46-5.46-5.46-5.46c-.3755541-.3751365-.5865733-.8841815-.5865733-1.415s.2110192-1.0398635.5865733-1.415l2.83-2.83c.3751365-.3755541.8841815-.5865733 1.415-.5865733s1.0398635.2110192 1.415.5865733l5.46 5.46 5.46-5.46c.3751365-.3755541.8841815-.5865733 1.415-.5865733s1.0398635.2110192 1.415.5865733l2.83 2.83c.3755541.3751365.5865733.8841815.5865733 1.415s-.2110192 1.0398635-.5865733 1.415l-5.46 5.46z"/></g></g></svg>